<svg xmlns="http://www.w3.org/2000/svg" viewBox="0 0 48 48"><path d="M24.707 12.963c.601-.673 1.152-1.275 1.152-2.608 0-1.047-.072-1.892-.288-2.608-.216-.72-.576-1.318-1.008-1.798-.432-.48-.937-.817-1.513-1.009-.576-.192-1.224-.288-1.944-.288-.72 0-1.368.096-1.944.288-.576.192-1.08.529-1.512 1.009-.432.48-.792 1.078-1.008 1.798-.216.716-.288 1.561-.288 2.608 0 1.333.552 1.935 1.152 2.608.6.673 1.368 1.01 2.304 1.01h2.592c.936 0 1.704-.337 2.305-1.01zM24 0c6.627 0 12 5.373 12 12s-5.373 12-12 12S12 18.627 12 12 17.373 0 24 0zm0 2.88c-5.088 0-9.12 4.032-9.12 9.12s4.032 9.12 9.12 9.12 9.12-4.032 9.12-9.12S29.088 2.88 24 2.88z"/><path d="M24 48c-6.627 0-12-5.373-12-12s5.373-12 12-12 12 5.373 12 12-5.373 12-12 12zm0-2.88c5.088 0 9.12-4.032 9.12-9.12s-4.032-9.12-9.12-9.12-9.12 4.032-9.12 9.12 4.032 9.12 9.12 9.12z"/></svg>