<svg xmlns="http://www.w3.org/2000/svg" viewBox="0 0 16 16"><path d="M14.725 12.2c-.654 1.066-1.262 2.063-2.148 2.064-1.046.002-1.423-.593-2.723-.593-1.301 0-1.656.576-2.65.613-.83.029-1.465-.969-2.123-2.033-1.156-1.872-2.04-5.292-.852-7.604.588-1.145 1.634-1.87 2.772-1.888 1.112-.018 2.16.71 2.837.71.677 0 1.949-.881 3.284-.751.559.023 2.129.214 3.135 1.617-.08.05-1.87 1.033-1.85 3.085.023 2.452 2.276 3.269 2.318 3.285M10.762 3.764c-.6-.696-1.437-1.23-2.307-1.264-.113.91.336 1.818.917 2.392.582.574 1.39 1.17 2.341 1.088.098-.934-.28-1.832-.951-2.216"/></svg>